<svg xmlns="http://www.w3.org/2000/svg" width="30" height="30" viewBox="0 0 30 30"><title>help icon</title><g><circle fill="#768692" cx="15" cy="15" r="15"/><path fill="#FFF" d="M16.443 17.83h-3.44v-.344c0-.585.067-1.06.2-1.425.133-.364.33-.697.593-1s.852-.832 1.77-1.592c.488-.398.732-.763.732-1.095 0-.332-.098-.59-.294-.774s-.493-.277-.89-.277c-.43 0-.784.142-1.064.425-.28.284-.46.778-.538 1.484L10 12.8c.12-1.292.59-2.33 1.407-3.12.818-.786 2.07-1.18 3.76-1.18 1.315 0 2.377.275 3.186.824 1.098.742 1.647 1.73 1.647 2.968 0 .513-.142 1.008-.425 1.484-.284.477-.863 1.06-1.738 1.747-.61.483-.994.87-1.154 1.163-.16.292-.24.674-.24 1.144zm-3.556.914h3.683v3.25h-3.683v-3.25z"/></g></svg>